<?xml version="1.0" ?>
<!DOCTYPE svg  PUBLIC '-//W3C//DTD SVG 1.1//EN'  'http://www.w3.org/Graphics/SVG/1.1/DTD/svg11.dtd'>
<!-- Uploaded to: SVG Repo, www.svgrepo.com, Generator: SVG Repo Mixer Tools -->
<svg width="800px" height="800px" viewBox="0 0 512 512" enable-background="new 0 0 512 512" id="Layer_1" version="1.1" xml:space="preserve" xmlns="http://www.w3.org/2000/svg" xmlns:xlink="http://www.w3.org/1999/xlink">
<g>
<g>
<rect fill="#D9DCE1" height="77" width="75" x="35.162" y="80.921"/>
<path d="M110.162,167.921h-75c-5.522,0-10-4.477-10-10v-77c0-5.523,4.478-10,10-10h75c5.522,0,10,4.477,10,10v77    C120.162,163.444,115.685,167.921,110.162,167.921z M45.162,147.921h55v-57h-55V147.921z" fill="#444B54"/>
</g>
<g>
<polyline fill="#D9DCE1" points="61.743,108.881 81.077,130.881 130.41,87.548   "/>
<path d="M81.081,140.881c-2.776,0-5.539-1.149-7.516-3.399l-19.334-22c-3.646-4.148-3.238-10.467,0.91-14.113    c4.149-3.646,10.466-3.238,14.113,0.911l12.734,14.49l41.821-36.735c4.148-3.646,10.468-3.236,14.112,0.914    c3.646,4.149,3.236,10.468-0.913,14.113l-49.333,43.333C85.777,140.063,83.425,140.881,81.081,140.881z" fill="#444B54"/>
</g>
<g>
<rect fill="#D9DCE1" height="77" width="75" x="35.162" y="80.921"/>
<path d="M110.162,167.921h-75c-5.522,0-10-4.477-10-10v-77c0-5.523,4.478-10,10-10h75c5.522,0,10,4.477,10,10v77    C120.162,163.444,115.685,167.921,110.162,167.921z M45.162,147.921h55v-57h-55V147.921z" fill="#444B54"/>
</g>
<g>
<rect fill="#D9DCE1" height="77" width="75" x="35.162" y="223.588"/>
<path d="M110.162,310.588h-75c-5.522,0-10-4.477-10-10v-77c0-5.523,4.478-10,10-10h75c5.522,0,10,4.477,10,10v77    C120.162,306.111,115.685,310.588,110.162,310.588z M45.162,290.588h55v-57h-55V290.588z" fill="#444B54"/>
</g>
<g>
<rect fill="#D9DCE1" height="77" width="75" x="35.162" y="366.254"/>
<path d="M110.162,453.254h-75c-5.522,0-10-4.477-10-10v-77c0-5.523,4.478-10,10-10h75c5.522,0,10,4.477,10,10v77    C120.162,448.777,115.685,453.254,110.162,453.254z M45.162,433.254h55v-57h-55V433.254z" fill="#444B54"/>
</g>
<g>
<polygon fill="#3C74BA" points="215.121,68.746 227.933,94.704 256.58,98.867 235.852,119.073 240.744,147.604 215.121,134.133     189.499,147.604 194.393,119.073 173.664,98.867 202.311,94.704   "/>
<path d="M189.5,157.604c-2.073,0-4.137-0.644-5.879-1.91c-3.079-2.237-4.622-6.029-3.979-9.781l4.005-23.349    l-16.964-16.537c-2.726-2.657-3.706-6.631-2.53-10.251c1.177-3.62,4.306-6.258,8.072-6.806l23.444-3.407l10.483-21.244    c1.685-3.414,5.161-5.575,8.968-5.575s7.283,2.161,8.968,5.574l10.484,21.244l23.444,3.407c3.768,0.547,6.896,3.186,8.073,6.806    c1.176,3.62,0.195,7.594-2.53,10.251l-16.964,16.537l4.004,23.35c0.643,3.751-0.899,7.543-3.979,9.78    c-3.08,2.237-7.163,2.532-10.531,0.761l-20.97-11.024l-20.969,11.024C192.689,157.224,191.092,157.604,189.5,157.604z     M215.121,124.133c1.599,0,3.196,0.383,4.653,1.148l7.689,4.042l-1.469-8.561c-0.556-3.244,0.52-6.554,2.876-8.851l6.22-6.063    l-8.596-1.249c-3.258-0.473-6.073-2.519-7.53-5.47l-3.844-7.789l-3.843,7.788c-1.457,2.952-4.272,4.998-7.53,5.471l-8.595,1.249    l6.22,6.063c2.356,2.297,3.432,5.607,2.876,8.851l-1.469,8.56l7.688-4.042C211.924,124.516,213.522,124.133,215.121,124.133z" fill="#444B54"/>
</g>
<g>
<polygon fill="#3C74BA" points="325.251,68.746 338.063,94.704 366.709,98.867 345.98,119.073 350.874,147.604 325.251,134.133     299.629,147.604 304.521,119.073 283.793,98.867 312.44,94.704   "/>
<path d="M350.873,157.604c-1.592,0-3.189-0.379-4.652-1.148l-20.97-11.024l-20.969,11.024    c-3.368,1.772-7.451,1.477-10.531-0.761c-3.079-2.237-4.621-6.029-3.979-9.78l4.004-23.35l-16.964-16.537    c-2.726-2.657-3.706-6.631-2.53-10.251c1.177-3.62,4.306-6.258,8.073-6.806l23.444-3.407l10.483-21.244    c1.685-3.414,5.161-5.575,8.968-5.575s7.282,2.161,8.968,5.574l10.484,21.244l23.444,3.407c3.767,0.547,6.896,3.186,8.072,6.806    c1.176,3.62,0.195,7.594-2.53,10.251l-16.964,16.537l4.005,23.349c0.644,3.751-0.899,7.543-3.979,9.781    C355.01,156.959,352.946,157.604,350.873,157.604z M325.251,124.133c1.599,0,3.196,0.383,4.653,1.148l7.688,4.042l-1.469-8.56    c-0.556-3.244,0.52-6.554,2.876-8.851l6.22-6.063l-8.595-1.249c-3.258-0.473-6.073-2.519-7.53-5.47l-3.844-7.789l-3.843,7.788    c-1.457,2.952-4.272,4.998-7.53,5.471l-8.596,1.249l6.22,6.063c2.356,2.297,3.432,5.607,2.876,8.851l-1.469,8.56l7.688-4.042    C322.054,124.516,323.652,124.133,325.251,124.133z" fill="#444B54"/>
</g>
<g>
<polygon fill="#65A0D6" points="215.121,222.659 227.933,248.618 256.58,252.78 235.852,272.986 240.744,301.517 215.121,288.046     189.499,301.517 194.393,272.986 173.664,252.78 202.311,248.618   "/>
<path d="M189.5,311.517c-2.073,0-4.137-0.644-5.879-1.91c-3.079-2.237-4.622-6.029-3.979-9.781l4.005-23.349    l-16.964-16.537c-2.726-2.657-3.706-6.631-2.53-10.251c1.177-3.62,4.306-6.258,8.072-6.806l23.444-3.407l10.483-21.244    c1.685-3.414,5.161-5.575,8.968-5.575s7.283,2.161,8.968,5.574l10.484,21.244l23.444,3.407c3.768,0.547,6.896,3.186,8.073,6.806    c1.176,3.62,0.195,7.594-2.53,10.251l-16.964,16.537l4.004,23.35c0.643,3.751-0.899,7.543-3.979,9.78    c-3.08,2.237-7.163,2.532-10.531,0.761l-20.97-11.024l-20.969,11.024C192.689,311.138,191.092,311.517,189.5,311.517z     M215.121,278.046c1.599,0,3.196,0.383,4.653,1.149l7.689,4.042l-1.469-8.561c-0.556-3.244,0.52-6.553,2.876-8.851l6.22-6.063    l-8.596-1.249c-3.258-0.473-6.073-2.519-7.53-5.47l-3.844-7.789l-3.843,7.788c-1.457,2.952-4.272,4.998-7.53,5.471l-8.595,1.249    l6.22,6.063c2.356,2.297,3.432,5.607,2.876,8.851l-1.469,8.56l7.688-4.042C211.924,278.429,213.522,278.046,215.121,278.046z" fill="#444B54"/>
</g>
<g>
<polygon fill="#65A0D6" points="325.251,222.659 338.063,248.618 366.709,252.78 345.98,272.986 350.874,301.517 325.251,288.046     299.629,301.517 304.521,272.986 283.793,252.78 312.44,248.618   "/>
<path d="M350.873,311.517c-1.592,0-3.189-0.379-4.652-1.148l-20.97-11.024l-20.969,11.024    c-3.368,1.772-7.451,1.477-10.531-0.761c-3.079-2.237-4.621-6.029-3.979-9.78l4.004-23.35l-16.964-16.537    c-2.726-2.657-3.706-6.631-2.53-10.251c1.177-3.62,4.306-6.258,8.073-6.806l23.444-3.407l10.483-21.244    c1.685-3.414,5.161-5.575,8.968-5.575s7.282,2.161,8.968,5.574l10.484,21.244l23.444,3.407c3.767,0.547,6.896,3.186,8.072,6.806    c1.176,3.62,0.195,7.594-2.53,10.251l-16.964,16.537l4.005,23.349c0.644,3.751-0.899,7.543-3.979,9.781    C355.01,310.873,352.946,311.517,350.873,311.517z M325.251,278.046c1.599,0,3.196,0.383,4.653,1.149l7.688,4.042l-1.469-8.56    c-0.556-3.244,0.52-6.554,2.876-8.851l6.22-6.063l-8.595-1.249c-3.258-0.473-6.073-2.519-7.53-5.47l-3.844-7.789l-3.843,7.788    c-1.457,2.952-4.272,4.998-7.53,5.471l-8.596,1.249l6.22,6.063c2.356,2.297,3.432,5.607,2.876,8.851l-1.469,8.561l7.688-4.042    C322.054,278.429,323.652,278.046,325.251,278.046z" fill="#444B54"/>
</g>
<g>
<polygon fill="#3C74BA" points="435.38,68.746 448.191,94.704 476.838,98.867 456.109,119.073 461.002,147.604 435.38,134.133     409.758,147.604 414.65,119.073 393.922,98.867 422.569,94.704   "/>
<path d="M461.001,157.604c-1.592,0-3.189-0.379-4.652-1.149l-20.969-11.024l-20.969,11.024    c-3.368,1.772-7.451,1.477-10.531-0.761c-3.079-2.237-4.621-6.029-3.979-9.78l4.004-23.35l-16.964-16.537    c-2.726-2.657-3.706-6.631-2.53-10.251c1.177-3.62,4.306-6.258,8.073-6.806l23.444-3.407l10.483-21.244    c1.685-3.414,5.161-5.575,8.968-5.575s7.282,2.161,8.968,5.574l10.484,21.244l23.444,3.407c3.767,0.547,6.896,3.186,8.072,6.806    c1.176,3.62,0.195,7.594-2.53,10.251l-16.964,16.537l4.004,23.35c0.643,3.751-0.899,7.543-3.979,9.78    C465.138,156.959,463.074,157.604,461.001,157.604z M435.38,124.133c1.599,0,3.197,0.383,4.653,1.149l7.688,4.042l-1.469-8.56    c-0.556-3.244,0.52-6.554,2.876-8.851l6.22-6.063l-8.595-1.249c-3.258-0.473-6.073-2.519-7.53-5.47l-3.844-7.789l-3.843,7.788    c-1.457,2.952-4.272,4.998-7.53,5.471l-8.596,1.249l6.22,6.063c2.356,2.297,3.432,5.607,2.876,8.851l-1.469,8.56l7.688-4.042    C432.183,124.516,433.781,124.133,435.38,124.133z" fill="#444B54"/>
</g>
<g>
<polyline fill="#D9DCE1" points="61.743,108.881 81.077,130.881 130.41,87.548   "/>
<path d="M81.081,140.881c-2.776,0-5.539-1.149-7.516-3.399l-19.334-22c-3.646-4.148-3.238-10.467,0.91-14.113    c4.149-3.646,10.466-3.238,14.113,0.911l12.734,14.49l41.821-36.735c4.148-3.646,10.468-3.236,14.112,0.914    c3.646,4.149,3.236,10.468-0.913,14.113l-49.333,43.333C85.777,140.063,83.425,140.881,81.081,140.881z" fill="#444B54"/>
</g>
<g>
<rect fill="#D9DCE1" height="77" width="75" x="35.162" y="223.588"/>
<path d="M110.162,310.588h-75c-5.522,0-10-4.477-10-10v-77c0-5.523,4.478-10,10-10h75c5.522,0,10,4.477,10,10v77    C120.162,306.111,115.685,310.588,110.162,310.588z M45.162,290.588h55v-57h-55V290.588z" fill="#444B54"/>
</g>
<g>
<rect fill="#D9DCE1" height="77" width="75" x="35.162" y="366.254"/>
<path d="M110.162,453.254h-75c-5.522,0-10-4.477-10-10v-77c0-5.523,4.478-10,10-10h75c5.522,0,10,4.477,10,10v77    C120.162,448.777,115.685,453.254,110.162,453.254z M45.162,433.254h55v-57h-55V433.254z" fill="#444B54"/>
</g>
<g>
<polygon fill="#3C74BA" points="215.121,68.746 227.933,94.704 256.58,98.867 235.852,119.073 240.744,147.604 215.121,134.133     189.499,147.604 194.393,119.073 173.664,98.867 202.311,94.704   "/>
<path d="M189.5,157.604c-2.073,0-4.137-0.644-5.879-1.91c-3.079-2.237-4.622-6.029-3.979-9.781l4.005-23.349    l-16.964-16.537c-2.726-2.657-3.706-6.631-2.53-10.251c1.177-3.62,4.306-6.258,8.072-6.806l23.444-3.407l10.483-21.244    c1.685-3.414,5.161-5.575,8.968-5.575s7.283,2.161,8.968,5.574l10.484,21.244l23.444,3.407c3.768,0.547,6.896,3.186,8.073,6.806    c1.176,3.62,0.195,7.594-2.53,10.251l-16.964,16.537l4.004,23.35c0.643,3.751-0.899,7.543-3.979,9.78    c-3.08,2.237-7.163,2.532-10.531,0.761l-20.97-11.024l-20.969,11.024C192.689,157.224,191.092,157.604,189.5,157.604z     M215.121,124.133c1.599,0,3.196,0.383,4.653,1.148l7.689,4.042l-1.469-8.561c-0.556-3.244,0.52-6.554,2.876-8.851l6.22-6.063    l-8.596-1.249c-3.258-0.473-6.073-2.519-7.53-5.47l-3.844-7.789l-3.843,7.788c-1.457,2.952-4.272,4.998-7.53,5.471l-8.595,1.249    l6.22,6.063c2.356,2.297,3.432,5.607,2.876,8.851l-1.469,8.56l7.688-4.042C211.924,124.516,213.522,124.133,215.121,124.133z" fill="#444B54"/>
</g>
<g>
<polygon fill="#3C74BA" points="325.251,68.746 338.063,94.704 366.709,98.867 345.98,119.073 350.874,147.604 325.251,134.133     299.629,147.604 304.521,119.073 283.793,98.867 312.44,94.704   "/>
<path d="M350.873,157.604c-1.592,0-3.189-0.379-4.652-1.148l-20.97-11.024l-20.969,11.024    c-3.368,1.772-7.451,1.477-10.531-0.761c-3.079-2.237-4.621-6.029-3.979-9.78l4.004-23.35l-16.964-16.537    c-2.726-2.657-3.706-6.631-2.53-10.251c1.177-3.62,4.306-6.258,8.073-6.806l23.444-3.407l10.483-21.244    c1.685-3.414,5.161-5.575,8.968-5.575s7.282,2.161,8.968,5.574l10.484,21.244l23.444,3.407c3.767,0.547,6.896,3.186,8.072,6.806    c1.176,3.62,0.195,7.594-2.53,10.251l-16.964,16.537l4.005,23.349c0.644,3.751-0.899,7.543-3.979,9.781    C355.01,156.959,352.946,157.604,350.873,157.604z M325.251,124.133c1.599,0,3.196,0.383,4.653,1.148l7.688,4.042l-1.469-8.56    c-0.556-3.244,0.52-6.554,2.876-8.851l6.22-6.063l-8.595-1.249c-3.258-0.473-6.073-2.519-7.53-5.47l-3.844-7.789l-3.843,7.788    c-1.457,2.952-4.272,4.998-7.53,5.471l-8.596,1.249l6.22,6.063c2.356,2.297,3.432,5.607,2.876,8.851l-1.469,8.56l7.688-4.042    C322.054,124.516,323.652,124.133,325.251,124.133z" fill="#444B54"/>
</g>
<g>
<polygon fill="#65A0D6" points="215.121,222.659 227.933,248.618 256.58,252.78 235.852,272.986 240.744,301.517 215.121,288.046     189.499,301.517 194.393,272.986 173.664,252.78 202.311,248.618   "/>
<path d="M189.5,311.517c-2.073,0-4.137-0.644-5.879-1.91c-3.079-2.237-4.622-6.029-3.979-9.781l4.005-23.349    l-16.964-16.537c-2.726-2.657-3.706-6.631-2.53-10.251c1.177-3.62,4.306-6.258,8.072-6.806l23.444-3.407l10.483-21.244    c1.685-3.414,5.161-5.575,8.968-5.575s7.283,2.161,8.968,5.574l10.484,21.244l23.444,3.407c3.768,0.547,6.896,3.186,8.073,6.806    c1.176,3.62,0.195,7.594-2.53,10.251l-16.964,16.537l4.004,23.35c0.643,3.751-0.899,7.543-3.979,9.78    c-3.08,2.237-7.163,2.532-10.531,0.761l-20.97-11.024l-20.969,11.024C192.689,311.138,191.092,311.517,189.5,311.517z     M215.121,278.046c1.599,0,3.196,0.383,4.653,1.149l7.689,4.042l-1.469-8.561c-0.556-3.244,0.52-6.553,2.876-8.851l6.22-6.063    l-8.596-1.249c-3.258-0.473-6.073-2.519-7.53-5.47l-3.844-7.789l-3.843,7.788c-1.457,2.952-4.272,4.998-7.53,5.471l-8.595,1.249    l6.22,6.063c2.356,2.297,3.432,5.607,2.876,8.851l-1.469,8.56l7.688-4.042C211.924,278.429,213.522,278.046,215.121,278.046z" fill="#444B54"/>
</g>
<g>
<polygon fill="#65A0D6" points="325.251,222.659 338.063,248.618 366.709,252.78 345.98,272.986 350.874,301.517 325.251,288.046     299.629,301.517 304.521,272.986 283.793,252.78 312.44,248.618   "/>
<path d="M350.873,311.517c-1.592,0-3.189-0.379-4.652-1.148l-20.97-11.024l-20.969,11.024    c-3.368,1.772-7.451,1.477-10.531-0.761c-3.079-2.237-4.621-6.029-3.979-9.78l4.004-23.35l-16.964-16.537    c-2.726-2.657-3.706-6.631-2.53-10.251c1.177-3.62,4.306-6.258,8.073-6.806l23.444-3.407l10.483-21.244    c1.685-3.414,5.161-5.575,8.968-5.575s7.282,2.161,8.968,5.574l10.484,21.244l23.444,3.407c3.767,0.547,6.896,3.186,8.072,6.806    c1.176,3.62,0.195,7.594-2.53,10.251l-16.964,16.537l4.005,23.349c0.644,3.751-0.899,7.543-3.979,9.781    C355.01,310.873,352.946,311.517,350.873,311.517z M325.251,278.046c1.599,0,3.196,0.383,4.653,1.149l7.688,4.042l-1.469-8.56    c-0.556-3.244,0.52-6.554,2.876-8.851l6.22-6.063l-8.595-1.249c-3.258-0.473-6.073-2.519-7.53-5.47l-3.844-7.789l-3.843,7.788    c-1.457,2.952-4.272,4.998-7.53,5.471l-8.596,1.249l6.22,6.063c2.356,2.297,3.432,5.607,2.876,8.851l-1.469,8.561l7.688-4.042    C322.054,278.429,323.652,278.046,325.251,278.046z" fill="#444B54"/>
</g>
<g>
<polygon fill="#3C74BA" points="435.38,68.746 448.191,94.704 476.838,98.867 456.109,119.073 461.002,147.604 435.38,134.133     409.758,147.604 414.65,119.073 393.922,98.867 422.569,94.704   "/>
<path d="M461.001,157.604c-1.592,0-3.189-0.379-4.652-1.149l-20.969-11.024l-20.969,11.024    c-3.368,1.772-7.451,1.477-10.531-0.761c-3.079-2.237-4.621-6.029-3.979-9.78l4.004-23.35l-16.964-16.537    c-2.726-2.657-3.706-6.631-2.53-10.251c1.177-3.62,4.306-6.258,8.073-6.806l23.444-3.407l10.483-21.244    c1.685-3.414,5.161-5.575,8.968-5.575s7.282,2.161,8.968,5.574l10.484,21.244l23.444,3.407c3.767,0.547,6.896,3.186,8.072,6.806    c1.176,3.62,0.195,7.594-2.53,10.251l-16.964,16.537l4.004,23.35c0.643,3.751-0.899,7.543-3.979,9.78    C465.138,156.959,463.074,157.604,461.001,157.604z M435.38,124.133c1.599,0,3.197,0.383,4.653,1.149l7.688,4.042l-1.469-8.56    c-0.556-3.244,0.52-6.554,2.876-8.851l6.22-6.063l-8.595-1.249c-3.258-0.473-6.073-2.519-7.53-5.47l-3.844-7.789l-3.843,7.788    c-1.457,2.952-4.272,4.998-7.53,5.471l-8.596,1.249l6.22,6.063c2.356,2.297,3.432,5.607,2.876,8.851l-1.469,8.56l7.688-4.042    C432.183,124.516,433.781,124.133,435.38,124.133z" fill="#444B54"/>
</g>
</g>
</svg>